<svg xmlns="http://www.w3.org/2000/svg" version="1.1" xmlns:xlink="http://www.w3.org/1999/xlink" xmlns:svgjs="http://svgjs.dev/svgjs" width="1000" height="999" viewBox="0 0 1000 999"><g transform="matrix(1,0,0,1,-0.215743440233382,-0.21552769679306039)"><svg viewBox="0 0 343 343" data-background-color="#ffffff" preserveAspectRatio="xMidYMid meet" height="999" width="1000" xmlns="http://www.w3.org/2000/svg" xmlns:xlink="http://www.w3.org/1999/xlink"><g id="tight-bounds" transform="matrix(1,0,0,1,0.0740000000000407,0.07400000000001228)"><svg viewBox="0 0 342.85155851775386 342.85155851775386" height="342.85155851775386" width="342.85155851775386"><g><svg></svg></g><g><svg viewBox="0 0 342.85155851775386 342.85155851775386" height="342.85155851775386" width="342.85155851775386"><g><path d="M0 171.426c0-94.676 76.75-171.426 171.426-171.426 94.676 0 171.426 76.75 171.426 171.426 0 94.676-76.75 171.426-171.426 171.426-94.676 0-171.426-76.75-171.426-171.426zM171.426 334.969c90.323 0 163.543-73.221 163.543-163.543 0-90.323-73.221-163.543-163.543-163.544-90.323 0-163.543 73.221-163.544 163.544 0 90.323 73.221 163.543 163.544 163.543z" data-fill-palette-color="tertiary" fill="#ff4136" stroke="transparent"></path><ellipse rx="164.56874808852186" ry="164.56874808852186" cx="171.42577925887693" cy="171.42577925887693" fill="#ff4136" stroke="transparent" stroke-width="0" fill-opacity="1" data-fill-palette-color="tertiary"></ellipse></g><g transform="matrix(1,0,0,1,64.84655864529837,127.72248891642224)"><svg viewBox="0 0 213.1584412271571 87.40658068490937" height="87.40658068490937" width="213.1584412271571"><g><svg viewBox="0 0 213.1584412271571 87.40658068490937" height="87.40658068490937" width="213.1584412271571"><g><svg viewBox="0 0 213.1584412271571 87.40658068490937" height="87.40658068490937" width="213.1584412271571"><g><svg viewBox="0 0 213.1584412271571 87.40658068490937" height="87.40658068490937" width="213.1584412271571"><g id="textblocktransform"><svg viewBox="0 0 213.1584412271571 87.40658068490937" height="87.40658068490937" width="213.1584412271571" id="textblock"><g><svg viewBox="0 0 213.1584412271571 87.40658068490937" height="87.40658068490937" width="213.1584412271571"><g transform="matrix(1,0,0,1,0,0)"><svg width="213.1584412271571" viewBox="1.15 -33.5 82.55 33.85" height="87.40658068490937" data-palette-color="#ffffff"><path d="M43.2-3.5L47.8-2.35 47.75 0 30.6 0 30.3-1.6Q31.9-2.75 34.55-3.95L34.55-3.95 34.5-15.15 35.2-24.05 26.4-0.8 20 0.35 11.25-23.85 12-15.15 11.85-3.4 16.1-2.35 16.05 0 1.45 0 1.15-1.6Q3.15-3 5.55-4L5.55-4 6.15-29.1 1.95-30.15 2-32.5 16.8-32.5 16.75-32.45 25.15-9 33.9-32.5 46.8-32.5 47.1-30.9Q45.45-29.7 42.8-28.55L42.8-28.55 43.2-3.5ZM80.65-3.1L83.7-2.65 83.65 0 72.45 0 65.85-12.6 62.55-12.55 62.55-3.3 66.7-2.65 66.65 0 49.55 0 49.25-1.6Q51.15-2.9 53.5-3.95L53.5-3.95 53.5-29.9 49.75-30.45 49.8-33.1 66.75-33.5Q72.75-33.5 76.62-30.53 80.5-27.55 80.5-23.05L80.5-23.05Q80.5-20.15 78.75-17.68 77-15.2 74-13.85L74-13.85 80.65-3.1ZM62.55-28.4L62.55-17.2Q63.95-16.85 65.35-16.85L65.35-16.85Q71.25-16.85 71.25-22.9L71.25-22.9Q71.25-27 68.7-29.15L68.7-29.15 62.55-28.4Z" opacity="1" transform="matrix(1,0,0,1,0,0)" fill="#ffffff" class="wordmark-text-0" data-fill-palette-color="quaternary" id="text-0"></path></svg></g></svg></g></svg></g></svg></g><g></g></svg></g></svg></g></svg></g></svg></g><defs></defs></svg><rect width="342.85155851775386" height="342.85155851775386" fill="none" stroke="none" visibility="hidden"></rect></g></svg></g></svg>