<svg xmlns="http://www.w3.org/2000/svg" version="1.1" xmlns:xlink="http://www.w3.org/1999/xlink" xmlns:svgjs="http://svgjs.dev/svgjs" width="1000" height="999" viewBox="0 0 1000 999"><g transform="matrix(1,0,0,1,-0.215743440233382,-0.21552769679306039)"><svg viewBox="0 0 343 343" data-background-color="#ed1703" preserveAspectRatio="xMidYMid meet" height="999" width="1000" xmlns="http://www.w3.org/2000/svg" xmlns:xlink="http://www.w3.org/1999/xlink"><g id="tight-bounds" transform="matrix(1,0,0,1,0.0740000000000407,0.07400000000001228)"><svg viewBox="0 0 342.85155851775386 342.85155851775386" height="342.85155851775386" width="342.85155851775386"><g><svg></svg></g><g><svg viewBox="0 0 342.85155851775386 342.85155851775386" height="342.85155851775386" width="342.85155851775386"><g><path d="M0 171.426c0-94.676 76.75-171.426 171.426-171.426 94.676 0 171.426 76.75 171.426 171.426 0 94.676-76.75 171.426-171.426 171.426-94.676 0-171.426-76.75-171.426-171.426zM171.426 334.179c89.886 0 162.753-72.867 162.753-162.753 0-89.886-72.867-162.753-162.753-162.754-89.886 0-162.753 72.867-162.754 162.754 0 89.886 72.867 162.753 162.754 162.753z" data-fill-palette-color="tertiary" fill="#ffffff" stroke="transparent"></path><ellipse rx="164.56874808852186" ry="164.56874808852186" cx="171.42577925887693" cy="171.42577925887693" fill="#ffffff" stroke="transparent" stroke-width="0" fill-opacity="1" data-fill-palette-color="tertiary"></ellipse></g><g transform="matrix(1,0,0,1,64.84655864529837,123.34220957907385)"><svg viewBox="0 0 213.1584412271571 96.16713935960615" height="96.16713935960615" width="213.1584412271571"><g><svg viewBox="0 0 213.1584412271571 96.16713935960615" height="96.16713935960615" width="213.1584412271571"><g><svg viewBox="0 0 213.1584412271571 96.16713935960615" height="96.16713935960615" width="213.1584412271571"><g id="textblocktransform"><svg viewBox="0 0 213.1584412271571 96.16713935960615" height="96.16713935960615" width="213.1584412271571" id="textblock"><g><svg viewBox="0 0 213.1584412271571 96.16713935960615" height="96.16713935960615" width="213.1584412271571"><g transform="matrix(1,0,0,1,0,0)"><svg width="213.1584412271571" viewBox="1.5 -32.9 73.7 33.25" height="96.16713935960615" data-palette-color="#ed1703"><path d="M38.6-2.9L43.55-2.35 43.5 0 30.1 0 29.8-1.6 34.1-3.15 33.8-21 34.5-29.25 24.25-0.8 19.9 0.35 9.35-28.85 10.3-21 9.85-2.85 14.05-2.35 14 0 1.8 0 1.5-1.6Q2.95-2.3 5.95-3.2L5.95-3.2 6.9-29.7 2.95-30.15 3-32.5 13.05-32.5 22.8-5.4 32.4-32.5 41.55-32.5 41.85-30.9Q40.6-30.3 38.15-29.55L38.15-29.55 38.6-2.9ZM71.8-2.65L75.2-2.35 75.15 0 67.55 0 60.4-13 54.45-12.95 54.45-2.95 59.8-2.35 59.75 0 45.85 0 45.55-1.6 49.8-3.15 49.8-29.9 46.25-30.1 46.3-32.5 60.25-32.9Q65.55-32.9 68.82-30.18 72.1-27.45 72.1-23.25L72.1-23.25Q72.1-20.25 70.25-17.57 68.4-14.9 65-13.7L65-13.7 71.8-2.65ZM54.45-29.2L54.45-16.25Q56.7-15.9 58.7-15.9L58.7-15.9Q63.3-15.9 65.15-18.07 67-20.25 67-23.25L67-23.25Q67-28.05 63.1-29.95L63.1-29.95 54.45-29.2Z" opacity="1" transform="matrix(1,0,0,1,0,0)" fill="#ed1703" class="wordmark-text-0" data-fill-palette-color="quaternary" id="text-0"></path></svg></g></svg></g></svg></g></svg></g></svg></g></svg></g></svg></g><defs></defs></svg><rect width="342.85155851775386" height="342.85155851775386" fill="none" stroke="none" visibility="hidden"></rect></g></svg></g></svg>